<svg width="70" height="72" viewBox="0 0 70 72" fill="none" xmlns="http://www.w3.org/2000/svg">
<g clip-path="url(#clip0)">
<path fill-rule="evenodd" clip-rule="evenodd" d="M40.5406 35.8662L64.8649 63.4349C66.2163 63.1673 67.8379 63.7026 68.919 64.7732C70.5406 66.6468 70.2703 69.3234 68.3784 70.9294C66.7568 72.5353 63.7838 72.2676 62.4325 70.6617C61.3514 69.3234 61.0811 67.7175 61.3514 66.3792L37.2973 39.0781L35.1352 45.5018C34.8649 46.3048 33.7838 46.5725 33.2433 45.7695L29.1892 37.4721H19.4595C18.3784 37.4721 18.1081 36.4015 18.6487 35.8662L25.4054 29.4424L22.1622 20.0743C21.8919 19.2714 22.973 18.4684 23.7838 19.0037L31.8919 23.0186L39.7298 17.3978C40.5406 16.8624 41.6217 17.3978 41.3514 18.4684L40 27.3011L47.8379 33.1896C48.6487 33.7249 48.3784 34.7955 47.2973 35.0632L40.5406 35.8662Z" fill="#357171"/>
<path fill-rule="evenodd" clip-rule="evenodd" d="M12.973 48.4461L15.6757 51.1227L14.3244 54.6022L17.8379 52.9963L20.5406 55.1375L20.0001 51.3903L22.973 49.2491L19.1892 48.7137L18.3784 45.2342L16.4865 48.7137L12.973 48.4461Z" fill="#357171"/>
<path fill-rule="evenodd" clip-rule="evenodd" d="M3.51355 25.6952L5.94598 28.3717L4.8649 31.5836L8.10814 29.9777L11.0811 32.119L10.5406 28.3717L13.5135 26.4981L9.72977 25.9628L8.64868 22.4833L7.02706 25.6952H3.51355Z" fill="#357171"/>
<path fill-rule="evenodd" clip-rule="evenodd" d="M30 2.40894L32.7027 5.62083L36.4865 4.81786L34.054 8.29741L35.9459 11.5093L32.1621 10.4387L29.4594 13.3829V9.36804L25.9459 7.7621L29.7297 6.42381L30 2.40894Z" fill="#357171"/>
<path fill-rule="evenodd" clip-rule="evenodd" d="M51.3514 19.539L52.7027 21.4126L55.1352 21.1449L53.7838 23.0186L54.8649 24.8922L52.4325 24.3568L51.0811 25.9628L50.8108 23.5539L48.6487 22.7509L51.0811 21.9479L51.3514 19.539Z" fill="#357171"/>
<path fill-rule="evenodd" clip-rule="evenodd" d="M46.4865 0L47.8379 1.87361L50 1.33829L48.6487 3.47955L50 5.35316L47.5676 4.81784L45.946 6.42379V4.01487L43.7838 3.2119L46.2162 2.14126L46.4865 0Z" fill="#357171"/>
<path fill-rule="evenodd" clip-rule="evenodd" d="M0 40.684L2.43243 41.2193L2.97297 43.3606L4.05405 41.2193L6.48649 41.487L4.86486 39.6134L5.67568 37.4721L3.51351 38.5428L1.62162 37.2045L1.89189 39.3457L0 40.684Z" fill="#357171"/>
<path fill-rule="evenodd" clip-rule="evenodd" d="M12.4324 7.7621L13.2432 9.90337L11.3513 11.5093H13.7837L14.8648 13.6506L15.6756 11.2417L17.8378 10.974L15.9459 9.63571L16.4865 7.49445L14.3243 8.83274L12.4324 7.7621Z" fill="#357171"/>
<path fill-rule="evenodd" clip-rule="evenodd" d="M27.8379 52.9963L28.3784 54.3346L27.2974 55.4052H28.919L29.7298 56.7435L30.0001 55.1376H31.6217L30.2703 54.0669L30.5406 52.7286L29.1893 53.5316L27.8379 52.9963Z" fill="#357171"/>
<path fill-rule="evenodd" clip-rule="evenodd" d="M52.1621 12.0446L52.7027 13.3829L51.6216 14.4536H53.2432L53.7837 15.7918L54.3243 14.1859L55.6756 13.9182L54.5946 13.1153V11.777L53.5135 12.58L52.1621 12.0446Z" fill="#357171"/>
</g>
<defs>
<clipPath id="clip0">
<rect width="70" height="72" fill="white"/>
</clipPath>
</defs>
</svg>
