<svg width="31" height="31" viewBox="0 0 31 31" fill="none" xmlns="http://www.w3.org/2000/svg">
<path d="M2.91406 23.87V25.234C2.91406 25.73 3.06906 26.195 3.37906 26.536C4.30906 27.621 6.63406 29.419 11.8421 29.419C17.0191 29.419 19.0031 27.621 19.7471 26.567C19.9641 26.226 20.0881 25.823 20.0881 25.389V24.056C18.9411 25.265 16.5851 26.722 11.8421 26.722C6.75806 26.753 4.15406 25.079 2.91406 23.87Z" fill="#FFDD09"/>
<path d="M20.0881 20.119C18.9411 21.328 16.5851 22.785 11.8421 22.785C6.75806 22.785 4.15406 21.111 2.91406 19.902V21.483C2.91406 21.979 3.06906 22.444 3.37906 22.785C4.30906 23.87 6.63406 25.668 11.8421 25.668C17.0191 25.668 19.0031 23.87 19.7471 22.816C19.9641 22.475 20.0881 22.072 20.0881 21.638V20.119Z" fill="#FFDD09"/>
<path d="M19.9951 10.633C24.4281 10.478 28.0551 8.46299 28.0551 6.10699C28.0861 3.62699 24.1491 1.54999 19.4991 1.54999C14.8491 1.54999 10.9121 3.62699 10.9121 6.10699C10.9121 6.66499 11.1291 7.22299 11.5011 7.71899C15.2211 7.71899 18.3831 8.86599 19.9951 10.633Z" fill="#FFDD09"/>
<path d="M11.5011 8.80396C6.85106 8.80396 2.91406 10.881 2.91406 13.361C2.91406 15.81 6.85106 17.918 11.5011 17.918C16.1511 17.918 20.0881 15.81 20.0881 13.33C20.0881 10.881 16.1511 8.80396 11.5011 8.80396Z" fill="#FFDD09"/>
<path d="M21.1731 15.5V17.67C21.1731 17.763 21.1731 17.856 21.1731 17.949V18.383C25.3581 18.104 27.0941 16.523 27.7451 15.562C27.9621 15.221 28.0861 14.818 28.0861 14.384V12.865C27.0321 13.95 25.0171 15.252 21.1731 15.5Z" fill="#FFDD09"/>
<path d="M20.0881 15.965C18.5071 17.763 15.2831 18.972 11.5011 18.972C7.71906 18.972 4.52606 17.763 2.91406 15.965V17.515C2.91406 18.011 3.06906 18.476 3.37906 18.817C4.30906 19.902 6.63406 21.7 11.8421 21.7C17.0191 21.7 19.0031 19.902 19.7471 18.848C19.9641 18.507 20.0881 18.104 20.0881 17.67V15.965Z" fill="#FFDD09"/>
<path d="M20.739 11.656C21.018 12.183 21.142 12.741 21.142 13.33C21.142 13.547 21.111 13.764 21.08 13.981H21.142V14.415C25.327 14.136 27.063 12.555 27.714 11.594C27.931 11.253 28.055 10.85 28.055 10.416V8.711C26.66 10.323 23.963 11.439 20.739 11.656Z" fill="#FFDD09"/>
<path d="M21.1731 19.468V21.638C21.1731 21.669 21.1731 21.7 21.1731 21.7V22.134C25.3581 21.855 27.0941 20.274 27.7451 19.313C27.9621 18.972 28.0861 18.569 28.0861 18.135V16.802C27.0321 17.949 25.0171 19.22 21.1731 19.468Z" fill="#FFDD09"/>
</svg>
