<svg width="248" height="73" viewBox="0 0 248 73" fill="none" xmlns="http://www.w3.org/2000/svg">
<path d="M0 2.83428C0 1.26895 1.26895 0 2.83429 0H203.36C204.925 0 206.344 1.23403 206.932 2.68475C212.521 16.4764 248 66.8385 248 72.2743C248 76.3144 217.33 49.2609 208.529 45.1997C207.108 44.5439 204.925 45.3486 203.36 45.3486H2.83429C1.26896 45.3486 0 44.0796 0 42.5143V2.83428Z" fill="#CD4A4A"/>
<path d="M20.917 11.7326V19.6686H19.4432V16.2675H15.3391V19.6686H13.8653V11.7326H15.3391V15.0091H19.4432V11.7326H20.917ZM28.653 16.6756C28.653 16.7739 28.6455 16.9137 28.6303 17.0951H23.8801C23.9632 17.541 24.1786 17.8963 24.5263 18.1608C24.8815 18.4178 25.3199 18.5463 25.8414 18.5463C26.5065 18.5463 27.0545 18.3271 27.4853 17.8887L28.2449 18.7617C27.9728 19.0867 27.6289 19.3323 27.2132 19.4986C26.7975 19.6649 26.3289 19.748 25.8074 19.748C25.1423 19.748 24.5565 19.6157 24.0501 19.3512C23.5437 19.0867 23.1507 18.7201 22.8711 18.2515C22.599 17.7753 22.4629 17.2387 22.4629 16.6416C22.4629 16.0521 22.5952 15.523 22.8597 15.0544C23.1318 14.5783 23.506 14.2079 23.9821 13.9434C24.4583 13.6788 24.9949 13.5466 25.592 13.5466C26.1815 13.5466 26.7068 13.6788 27.1679 13.9434C27.6365 14.2004 27.9992 14.5669 28.2562 15.0431C28.5208 15.5117 28.653 16.0559 28.653 16.6756ZM25.592 14.6803C25.1385 14.6803 24.753 14.8163 24.4356 15.0884C24.1257 15.353 23.9368 15.7082 23.8687 16.1541H27.3039C27.2434 15.7158 27.0583 15.3605 26.7484 15.0884C26.4385 14.8163 26.053 14.6803 25.592 14.6803ZM36.9528 16.5169C37.3307 16.6227 37.6217 16.7966 37.8257 17.0384C38.0374 17.2727 38.1432 17.5562 38.1432 17.8887C38.1432 18.2591 38.0185 18.5878 37.7691 18.875C37.5196 19.1547 37.1757 19.3739 36.7374 19.5326C36.299 19.6913 35.8002 19.7707 35.2409 19.7707C34.7723 19.7707 34.315 19.7178 33.8691 19.612C33.4232 19.4986 33.0188 19.3399 32.656 19.1358L33.0641 18.0814C33.3589 18.2477 33.6915 18.3762 34.0618 18.4669C34.4322 18.5576 34.8025 18.6029 35.1729 18.6029C35.649 18.6029 36.0194 18.5311 36.2839 18.3875C36.556 18.2364 36.692 18.0323 36.692 17.7753C36.692 17.541 36.5862 17.3596 36.3746 17.2312C36.1705 17.1027 35.8795 17.0384 35.5016 17.0384H34.3226V16.0861H35.3883C35.7435 16.0861 36.0194 16.0256 36.2159 15.9047C36.4199 15.7838 36.522 15.6137 36.522 15.3945C36.522 15.1754 36.401 15.0015 36.1592 14.873C35.9173 14.7445 35.5848 14.6803 35.1615 14.6803C34.5569 14.6803 33.9182 14.8277 33.2455 15.1224L32.8827 14.0794C33.6763 13.7091 34.4775 13.5239 35.2862 13.5239C35.8002 13.5239 36.2612 13.5957 36.6694 13.7393C37.0775 13.8754 37.3949 14.0719 37.6217 14.3288C37.856 14.5783 37.9731 14.8655 37.9731 15.1905C37.9731 15.4852 37.8824 15.7498 37.701 15.9841C37.5196 16.2108 37.2702 16.3884 36.9528 16.5169ZM41.8698 13.5466C42.7617 13.5466 43.4419 13.762 43.9105 14.1928C44.3867 14.6161 44.6248 15.2585 44.6248 16.1201V19.6686H43.287V18.9317C43.1131 19.1963 42.8637 19.4003 42.5387 19.5439C42.2213 19.68 41.8358 19.748 41.3823 19.748C40.9288 19.748 40.532 19.6724 40.1919 19.5213C39.8518 19.3625 39.5873 19.1471 39.3983 18.875C39.2169 18.5954 39.1262 18.2817 39.1262 17.9341C39.1262 17.3899 39.3265 16.9553 39.7271 16.6303C40.1352 16.2977 40.7739 16.1315 41.6431 16.1315H43.2076V16.0408C43.2076 15.6175 43.0791 15.2925 42.8221 15.0658C42.5727 14.839 42.1986 14.7256 41.6998 14.7256C41.3597 14.7256 41.0233 14.7786 40.6908 14.8844C40.3658 14.9902 40.0899 15.1376 39.8632 15.3265L39.3076 14.2948C39.6251 14.053 40.0068 13.8678 40.4527 13.7393C40.8986 13.6108 41.371 13.5466 41.8698 13.5466ZM41.6771 18.7163C42.0323 18.7163 42.346 18.637 42.6181 18.4782C42.8977 18.312 43.0942 18.0777 43.2076 17.7753V17.0724H41.7451C40.9288 17.0724 40.5207 17.3407 40.5207 17.8774C40.5207 18.1343 40.6227 18.3384 40.8268 18.4896C41.0309 18.6407 41.3143 18.7163 41.6771 18.7163ZM49.6548 13.9094C50.2292 13.9094 50.7356 14.0341 51.174 14.2835C51.6124 14.5254 51.9525 14.8655 52.1943 15.3038C52.4438 15.7422 52.5685 16.2448 52.5685 16.8117C52.5685 17.3937 52.4324 17.9114 52.1603 18.3649C51.8882 18.8108 51.5065 19.1585 51.0153 19.4079C50.524 19.6573 49.9647 19.782 49.3374 19.782C48.2868 19.782 47.4743 19.4343 46.8999 18.739C46.3255 18.0436 46.0383 17.0422 46.0383 15.7347C46.0383 14.5178 46.299 13.5541 46.8205 12.8437C47.342 12.1332 48.1394 11.6646 49.2127 11.4379L52.0243 10.837L52.2283 12.1068L49.6775 12.6283C48.9444 12.7794 48.3964 13.0364 48.0336 13.3992C47.6708 13.762 47.4592 14.2722 47.3987 14.9297C47.6708 14.6047 47.9996 14.3553 48.3851 14.1815C48.7705 14.0001 49.1938 13.9094 49.6548 13.9094ZM49.3714 18.637C49.8929 18.637 50.3124 18.4707 50.6298 18.1381C50.9548 17.798 51.1173 17.3672 51.1173 16.8457C51.1173 16.3242 50.9548 15.9047 50.6298 15.5873C50.3124 15.2698 49.8929 15.1111 49.3714 15.1111C48.8423 15.1111 48.4153 15.2698 48.0903 15.5873C47.7653 15.9047 47.6028 16.3242 47.6028 16.8457C47.6028 17.3748 47.7653 17.8056 48.0903 18.1381C48.4228 18.4707 48.8499 18.637 49.3714 18.637ZM59.488 13.6146L56.6537 20.1561C56.3892 20.8137 56.068 21.2747 55.6901 21.5393C55.3122 21.8114 54.8549 21.9474 54.3183 21.9474C54.016 21.9474 53.7174 21.8983 53.4226 21.8C53.1279 21.7018 52.886 21.5657 52.6971 21.3919L53.2639 20.3489C53.4 20.4774 53.5587 20.5794 53.7401 20.655C53.929 20.7306 54.118 20.7683 54.3069 20.7683C54.5564 20.7683 54.7604 20.7041 54.9191 20.5756C55.0854 20.4471 55.2366 20.2317 55.3726 19.9294L55.4747 19.6913L52.8331 13.6146H54.3069L56.2116 18.0928L58.1276 13.6146H59.488ZM66.5581 18.4669V21.0178H65.2316V19.6686H60.5607V21.0178H59.2456V18.4669H59.529C59.9145 18.4518 60.1752 18.2061 60.3113 17.73C60.4549 17.2463 60.5494 16.566 60.5947 15.6893L60.6741 13.6146H65.6624V18.4669H66.5581ZM61.8871 15.7913C61.8569 16.4867 61.8002 17.0535 61.7171 17.4919C61.634 17.9303 61.4828 18.2553 61.2636 18.4669H64.2453V14.8163H61.9212L61.8871 15.7913ZM70.8621 15.6099C71.633 15.6099 72.2225 15.7838 72.6307 16.1315C73.0464 16.4791 73.2542 16.9704 73.2542 17.6053C73.2542 18.2704 73.0275 18.7843 72.574 19.1471C72.1205 19.5099 71.4819 19.6875 70.658 19.68L67.8237 19.6686V13.6146H69.2409V15.5986L70.8621 15.6099ZM70.5333 18.637C70.949 18.6445 71.2664 18.5576 71.4856 18.3762C71.7048 18.1948 71.8144 17.9303 71.8144 17.5826C71.8144 17.2425 71.7086 16.9931 71.497 16.8344C71.2853 16.6756 70.9641 16.5925 70.5333 16.5849L69.2409 16.5736V18.6256L70.5333 18.637ZM83.4376 13.6146V19.6686H82.0318V14.8163H79.0502V19.6686H77.633V13.6146H83.4376ZM88.048 19.748C87.4358 19.748 86.8841 19.6157 86.3928 19.3512C85.9015 19.0867 85.5161 18.7201 85.2364 18.2515C84.9643 17.7753 84.8283 17.2387 84.8283 16.6416C84.8283 16.0445 84.9643 15.5117 85.2364 15.0431C85.5161 14.5745 85.9015 14.2079 86.3928 13.9434C86.8841 13.6788 87.4358 13.5466 88.048 13.5466C88.6678 13.5466 89.2233 13.6788 89.7146 13.9434C90.2059 14.2079 90.5876 14.5745 90.8597 15.0431C91.1393 15.5117 91.2791 16.0445 91.2791 16.6416C91.2791 17.2387 91.1393 17.7753 90.8597 18.2515C90.5876 18.7201 90.2059 19.0867 89.7146 19.3512C89.2233 19.6157 88.6678 19.748 88.048 19.748ZM88.048 18.5349C88.5696 18.5349 89.0004 18.3611 89.3405 18.0134C89.6806 17.6657 89.8506 17.2085 89.8506 16.6416C89.8506 16.0748 89.6806 15.6175 89.3405 15.2698C89.0004 14.9222 88.5696 14.7483 88.048 14.7483C87.5265 14.7483 87.0957 14.9222 86.7556 15.2698C86.4231 15.6175 86.2568 16.0748 86.2568 16.6416C86.2568 17.2085 86.4231 17.6657 86.7556 18.0134C87.0957 18.3611 87.5265 18.5349 88.048 18.5349ZM95.1959 17.2425H94.0962V19.6686H92.6791V13.6146H94.0962V16.0634H95.23L97.0212 13.6146H98.5404L96.341 16.5283L98.6878 19.6686H97.0212L95.1959 17.2425ZM102.186 19.748C101.574 19.748 101.022 19.6157 100.531 19.3512C100.04 19.0867 99.6543 18.7201 99.3746 18.2515C99.1026 17.7753 98.9665 17.2387 98.9665 16.6416C98.9665 16.0445 99.1026 15.5117 99.3746 15.0431C99.6543 14.5745 100.04 14.2079 100.531 13.9434C101.022 13.6788 101.574 13.5466 102.186 13.5466C102.806 13.5466 103.362 13.6788 103.853 13.9434C104.344 14.2079 104.726 14.5745 104.998 15.0431C105.278 15.5117 105.417 16.0445 105.417 16.6416C105.417 17.2387 105.278 17.7753 104.998 18.2515C104.726 18.7201 104.344 19.0867 103.853 19.3512C103.362 19.6157 102.806 19.748 102.186 19.748ZM102.186 18.5349C102.708 18.5349 103.139 18.3611 103.479 18.0134C103.819 17.6657 103.989 17.2085 103.989 16.6416C103.989 16.0748 103.819 15.6175 103.479 15.2698C103.139 14.9222 102.708 14.7483 102.186 14.7483C101.665 14.7483 101.234 14.9222 100.894 15.2698C100.561 15.6175 100.395 16.0748 100.395 16.6416C100.395 17.2085 100.561 17.6657 100.894 18.0134C101.234 18.3611 101.665 18.5349 102.186 18.5349ZM110.173 13.5466C110.763 13.5466 111.288 13.6751 111.749 13.932C112.218 14.189 112.584 14.5518 112.849 15.0204C113.113 15.489 113.245 16.0294 113.245 16.6416C113.245 17.2538 113.113 17.798 112.849 18.2742C112.584 18.7428 112.218 19.1056 111.749 19.3625C111.288 19.6195 110.763 19.748 110.173 19.748C109.357 19.748 108.711 19.4759 108.234 18.9317V21.868H106.817V13.6146H108.166V14.4082C108.401 14.121 108.688 13.9056 109.028 13.762C109.376 13.6184 109.757 13.5466 110.173 13.5466ZM110.014 18.5349C110.536 18.5349 110.963 18.3611 111.295 18.0134C111.636 17.6657 111.806 17.2085 111.806 16.6416C111.806 16.0748 111.636 15.6175 111.295 15.2698C110.963 14.9222 110.536 14.7483 110.014 14.7483C109.674 14.7483 109.368 14.8277 109.096 14.9864C108.824 15.1376 108.609 15.3567 108.45 15.644C108.291 15.9312 108.212 16.2637 108.212 16.6416C108.212 17.0195 108.291 17.3521 108.45 17.6393C108.609 17.9265 108.824 18.1495 109.096 18.3082C109.368 18.4593 109.674 18.5349 110.014 18.5349ZM120.608 19.6686V15.6553L118.567 19.0338H117.955L115.948 15.644V19.6686H114.656V13.6146H116.141L118.295 17.4012L120.551 13.6146H121.878L121.889 19.6686H120.608ZM123.79 13.6146H125.207V17.6053L128.551 13.6146H129.844V19.6686H128.427V15.678L125.094 19.6686H123.79V13.6146ZM136.546 14.8163H134.426V19.6686H133.009V14.8163H130.877V13.6146H136.546V14.8163ZM140.612 15.6099C141.383 15.6099 141.973 15.7838 142.381 16.1315C142.796 16.4791 143.004 16.9704 143.004 17.6053C143.004 18.2704 142.777 18.7843 142.324 19.1471C141.871 19.5099 141.232 19.6875 140.408 19.68L137.574 19.6686V13.6146H138.991V15.5986L140.612 15.6099ZM140.283 18.637C140.699 18.6445 141.016 18.5576 141.236 18.3762C141.455 18.1948 141.564 17.9303 141.564 17.5826C141.564 17.2425 141.459 16.9931 141.247 16.8344C141.035 16.6756 140.714 16.5925 140.283 16.5849L138.991 16.5736V18.6256L140.283 18.637ZM152.927 12.9797H148.993L149.004 19.6686H147.553V11.7326H152.938L152.927 12.9797ZM156.485 13.5466C157.074 13.5466 157.6 13.6751 158.061 13.932C158.529 14.189 158.896 14.5518 159.16 15.0204C159.425 15.489 159.557 16.0294 159.557 16.6416C159.557 17.2538 159.425 17.798 159.16 18.2742C158.896 18.7428 158.529 19.1056 158.061 19.3625C157.6 19.6195 157.074 19.748 156.485 19.748C155.669 19.748 155.022 19.4759 154.546 18.9317V21.868H153.129V13.6146H154.478V14.4082C154.713 14.121 155 13.9056 155.34 13.762C155.688 13.6184 156.069 13.5466 156.485 13.5466ZM156.326 18.5349C156.848 18.5349 157.275 18.3611 157.607 18.0134C157.947 17.6657 158.117 17.2085 158.117 16.6416C158.117 16.0748 157.947 15.6175 157.607 15.2698C157.275 14.9222 156.848 14.7483 156.326 14.7483C155.986 14.7483 155.68 14.8277 155.408 14.9864C155.136 15.1376 154.92 15.3567 154.762 15.644C154.603 15.9312 154.524 16.2637 154.524 16.6416C154.524 17.0195 154.603 17.3521 154.762 17.6393C154.92 17.9265 155.136 18.1495 155.408 18.3082C155.68 18.4593 155.986 18.5349 156.326 18.5349ZM160.968 13.6146H162.385V17.6053L165.729 13.6146H167.022V19.6686H165.605V15.678L162.271 19.6686H160.968V13.6146ZM177.85 13.6146V19.6686H168.928V13.6146H170.345V18.4669H172.692V13.6146H174.109V18.4669H176.433V13.6146H177.85ZM185.47 13.6146L182.636 20.1561C182.371 20.8137 182.05 21.2747 181.672 21.5393C181.294 21.8114 180.837 21.9474 180.3 21.9474C179.998 21.9474 179.699 21.8983 179.404 21.8C179.11 21.7018 178.868 21.5657 178.679 21.3919L179.246 20.3489C179.382 20.4774 179.54 20.5794 179.722 20.655C179.911 20.7306 180.1 20.7683 180.289 20.7683C180.538 20.7683 180.742 20.7041 180.901 20.5756C181.067 20.4471 181.218 20.2317 181.354 19.9294L181.456 19.6913L178.815 13.6146H180.289L182.193 18.0928L184.109 13.6146H185.47ZM186.25 11.7326H187.928L187.644 17.0384H186.522L186.25 11.7326ZM187.089 19.748C186.824 19.748 186.605 19.6649 186.431 19.4986C186.258 19.3247 186.171 19.1131 186.171 18.8637C186.171 18.6143 186.258 18.4064 186.431 18.2402C186.605 18.0739 186.824 17.9907 187.089 17.9907C187.346 17.9907 187.558 18.0739 187.724 18.2402C187.898 18.4064 187.985 18.6143 187.985 18.8637C187.985 19.1131 187.898 19.3247 187.724 19.4986C187.558 19.6649 187.346 19.748 187.089 19.748ZM13.8766 25.7326H15.3278V31.3672L19.5906 25.7326H20.9624V33.6686H19.5112V28.0454L15.2484 33.6686H13.8766V25.7326ZM28.5159 27.6146V33.6686H27.0988V28.8163H24.8313L24.7747 30.0181C24.7369 30.8192 24.6613 31.4919 24.5479 32.0361C24.4421 32.5727 24.2569 32.9997 23.9924 33.3172C23.7354 33.6271 23.3802 33.782 22.9267 33.782C22.7151 33.782 22.4543 33.7404 22.1444 33.6573L22.2125 32.4669C22.3183 32.4896 22.409 32.5009 22.4846 32.5009C22.7718 32.5009 22.9872 32.3875 23.1308 32.1608C23.2744 31.9265 23.3651 31.6506 23.4029 31.3332C23.4482 31.0082 23.486 30.5471 23.5162 29.9501L23.6183 27.6146H28.5159ZM30.4244 27.6146H31.8416V31.6053L35.186 27.6146H36.4785V33.6686H35.0613V29.678L31.7282 33.6686H30.4244V27.6146ZM44.2163 33.748C43.6041 33.748 43.0523 33.6157 42.561 33.3512C42.0698 33.0867 41.6843 32.7201 41.4046 32.2515C41.1326 31.7753 40.9965 31.2387 40.9965 30.6416C40.9965 30.0445 41.1326 29.5117 41.4046 29.0431C41.6843 28.5745 42.0698 28.2079 42.561 27.9434C43.0523 27.6788 43.6041 27.5466 44.2163 27.5466C44.836 27.5466 45.3915 27.6788 45.8828 27.9434C46.3741 28.2079 46.7558 28.5745 47.0279 29.0431C47.3075 29.5117 47.4473 30.0445 47.4473 30.6416C47.4473 31.2387 47.3075 31.7753 47.0279 32.2515C46.7558 32.7201 46.3741 33.0867 45.8828 33.3512C45.3915 33.6157 44.836 33.748 44.2163 33.748ZM44.2163 32.5349C44.7378 32.5349 45.1686 32.3611 45.5087 32.0134C45.8488 31.6657 46.0189 31.2085 46.0189 30.6416C46.0189 30.0748 45.8488 29.6175 45.5087 29.2698C45.1686 28.9222 44.7378 28.7483 44.2163 28.7483C43.6948 28.7483 43.2639 28.9222 42.9238 29.2698C42.5913 29.6175 42.425 30.0748 42.425 30.6416C42.425 31.2085 42.5913 31.6657 42.9238 32.0134C43.2639 32.3611 43.6948 32.5349 44.2163 32.5349ZM48.8473 27.6146H50.2644V30.0748H53.3141V27.6146H54.7313V33.6686H53.3141V31.2765H50.2644V33.6686H48.8473V27.6146ZM65.5684 27.6146V33.6686H64.1625V28.8163H61.1809V33.6686H59.7637V27.6146H65.5684ZM70.1788 33.748C69.5666 33.748 69.0148 33.6157 68.5235 33.3512C68.0323 33.0867 67.6468 32.7201 67.3672 32.2515C67.0951 31.7753 66.959 31.2387 66.959 30.6416C66.959 30.0445 67.0951 29.5117 67.3672 29.0431C67.6468 28.5745 68.0323 28.2079 68.5235 27.9434C69.0148 27.6788 69.5666 27.5466 70.1788 27.5466C70.7985 27.5466 71.354 27.6788 71.8453 27.9434C72.3366 28.2079 72.7183 28.5745 72.9904 29.0431C73.27 29.5117 73.4098 30.0445 73.4098 30.6416C73.4098 31.2387 73.27 31.7753 72.9904 32.2515C72.7183 32.7201 72.3366 33.0867 71.8453 33.3512C71.354 33.6157 70.7985 33.748 70.1788 33.748ZM70.1788 32.5349C70.7003 32.5349 71.1311 32.3611 71.4712 32.0134C71.8113 31.6657 71.9814 31.2085 71.9814 30.6416C71.9814 30.0748 71.8113 29.6175 71.4712 29.2698C71.1311 28.9222 70.7003 28.7483 70.1788 28.7483C69.6573 28.7483 69.2264 28.9222 68.8863 29.2698C68.5538 29.6175 68.3875 30.0748 68.3875 30.6416C68.3875 31.2085 68.5538 31.6657 68.8863 32.0134C69.2264 32.3611 69.6573 32.5349 70.1788 32.5349ZM79.458 28.8163H76.2269V33.6686H74.8098V27.6146H79.458V28.8163ZM80.4895 27.6146H81.9066V31.6053L85.2511 27.6146H86.5435V33.6686H85.1263V29.678L81.7932 33.6686H80.4895V27.6146ZM91.7262 27.9094C92.3007 27.9094 92.8071 28.0341 93.2454 28.2835C93.6838 28.5254 94.0239 28.8655 94.2658 29.3038C94.5152 29.7422 94.6399 30.2448 94.6399 30.8117C94.6399 31.3937 94.5038 31.9114 94.2318 32.3649C93.9597 32.8108 93.578 33.1585 93.0867 33.4079C92.5954 33.6573 92.0361 33.782 91.4088 33.782C90.3582 33.782 89.5457 33.4343 88.9713 32.739C88.3969 32.0436 88.1097 31.0422 88.1097 29.7347C88.1097 28.5178 88.3704 27.5541 88.892 26.8437C89.4135 26.1332 90.2108 25.6646 91.2841 25.4379L94.0957 24.837L94.2998 26.1068L91.7489 26.6283C91.0158 26.7794 90.4678 27.0364 90.105 27.3992C89.7422 27.762 89.5306 28.2722 89.4702 28.9297C89.7422 28.6047 90.071 28.3553 90.4565 28.1815C90.8419 28.0001 91.2652 27.9094 91.7262 27.9094ZM91.4428 32.637C91.9643 32.637 92.3838 32.4707 92.7012 32.1381C93.0262 31.798 93.1887 31.3672 93.1887 30.8457C93.1887 30.3242 93.0262 29.9047 92.7012 29.5873C92.3838 29.2698 91.9643 29.1111 91.4428 29.1111C90.9137 29.1111 90.4867 29.2698 90.1617 29.5873C89.8367 29.9047 89.6742 30.3242 89.6742 30.8457C89.6742 31.3748 89.8367 31.8056 90.1617 32.1381C90.4943 32.4707 90.9213 32.637 91.4428 32.637ZM96.0116 27.6146H97.4287V30.0748H100.478V27.6146H101.896V33.6686H100.478V31.2765H97.4287V33.6686H96.0116V27.6146ZM109.463 30.6756C109.463 30.7739 109.456 30.9137 109.441 31.0951H104.69C104.774 31.541 104.989 31.8963 105.337 32.1608C105.692 32.4178 106.13 32.5463 106.652 32.5463C107.317 32.5463 107.865 32.3271 108.296 31.8887L109.055 32.7617C108.783 33.0867 108.439 33.3323 108.024 33.4986C107.608 33.6649 107.139 33.748 106.618 33.748C105.953 33.748 105.367 33.6157 104.86 33.3512C104.354 33.0867 103.961 32.7201 103.681 32.2515C103.409 31.7753 103.273 31.2387 103.273 30.6416C103.273 30.0521 103.406 29.523 103.67 29.0544C103.942 28.5783 104.316 28.2079 104.792 27.9434C105.269 27.6788 105.805 27.5466 106.402 27.5466C106.992 27.5466 107.517 27.6788 107.978 27.9434C108.447 28.2004 108.81 28.5669 109.067 29.0431C109.331 29.5117 109.463 30.0559 109.463 30.6756ZM106.402 28.6803C105.949 28.6803 105.563 28.8163 105.246 29.0884C104.936 29.353 104.747 29.7082 104.679 30.1541H108.114C108.054 29.7158 107.869 29.3605 107.559 29.0884C107.249 28.8163 106.863 28.6803 106.402 28.6803ZM115.588 28.8163H113.468V33.6686H112.05V28.8163H109.919V27.6146H115.588V28.8163ZM116.482 33.748C116.225 33.748 116.006 33.6611 115.824 33.4872C115.643 33.3059 115.552 33.0791 115.552 32.807C115.552 32.5274 115.639 32.3006 115.813 32.1268C115.994 31.953 116.217 31.866 116.482 31.866C116.746 31.866 116.965 31.953 117.139 32.1268C117.321 32.3006 117.411 32.5274 117.411 32.807C117.411 33.0791 117.321 33.3059 117.139 33.4872C116.958 33.6611 116.739 33.748 116.482 33.748ZM119.25 33.748C118.993 33.748 118.773 33.6611 118.592 33.4872C118.411 33.3059 118.32 33.0791 118.32 32.807C118.32 32.5274 118.407 32.3006 118.581 32.1268C118.762 31.953 118.985 31.866 119.25 31.866C119.514 31.866 119.733 31.953 119.907 32.1268C120.088 32.3006 120.179 32.5274 120.179 32.807C120.179 33.0791 120.088 33.3059 119.907 33.4872C119.726 33.6611 119.507 33.748 119.25 33.748ZM122.017 33.748C121.76 33.748 121.541 33.6611 121.36 33.4872C121.178 33.3059 121.088 33.0791 121.088 32.807C121.088 32.5274 121.175 32.3006 121.349 32.1268C121.53 31.953 121.753 31.866 122.017 31.866C122.282 31.866 122.501 31.953 122.675 32.1268C122.856 32.3006 122.947 32.5274 122.947 32.807C122.947 33.0791 122.856 33.3059 122.675 33.4872C122.494 33.6611 122.274 33.748 122.017 33.748Z" fill="white"/>
</svg>
