<svg width="90" height="15" viewBox="0 0 90 15" fill="none" xmlns="http://www.w3.org/2000/svg">
<g clip-path="url(#clip0)">
<path d="M33.2978 1.0526L31.6753 11.1586L30.0541 1.0526H24.8073L24.5294 13.9812H27.7436L27.8306 2.01289L30.0417 13.9812H33.3028L35.5163 2.01289L35.6033 13.9812H38.8259L38.538 1.0526H33.2978Z" fill="white"/>
<path d="M85.5123 8.60979H86.8308V10.4808C86.8345 10.6477 86.8257 10.8281 86.7972 10.9726C86.7446 11.3211 86.4149 11.9153 85.4791 11.9153C84.5493 11.9153 84.2253 11.3211 84.1694 10.9726C84.1454 10.8281 84.1355 10.6477 84.1355 10.4808V4.57181C84.1355 4.36314 84.15 4.13412 84.1939 3.96088C84.2577 3.6461 84.5352 3.02522 85.4721 3.02522C86.4563 3.02522 86.7015 3.67982 86.7578 3.96088C86.7947 4.14745 86.7972 4.45979 86.7972 4.45979V5.17727H90.0359V4.75295C90.0359 4.75295 90.0504 4.31029 90.011 3.89718C89.7675 1.47239 87.7801 0.704905 85.5007 0.704905C83.2176 0.704905 81.2704 1.47944 80.9866 3.89718C80.961 4.11833 80.922 4.51639 80.922 4.75295V10.1884C80.922 10.425 80.9295 10.6086 80.973 11.0409C81.1842 13.3994 83.2176 14.2356 85.492 14.2356C87.7801 14.2356 89.7993 13.3994 90.0143 11.0409C90.0525 10.6086 90.0566 10.425 90.0616 10.1884V6.72424H85.5123V8.60979Z" fill="white"/>
<path d="M74.5477 11.4619L71.5194 1.05263H66.7469V13.8463H69.904L69.7205 3.10437L72.9729 13.8463H77.5499V1.05263H74.3725L74.5477 11.4619Z" fill="white"/>
<path d="M13.8734 1.0526L11.4909 13.9812H14.9653L16.76 2.01289L18.5121 13.9812H21.9621L19.5895 1.0526H13.8734Z" fill="white"/>
<path d="M3.52351 4.38565C3.46137 4.12498 3.47589 3.85017 3.51065 3.70691C3.59847 3.29462 3.87642 2.83535 4.68786 2.83535C5.44007 2.83535 5.88243 3.30546 5.88243 4.00966V4.8096H9.09006V3.90179C9.09006 1.08889 6.5684 0.640799 4.75 0.640799C2.4656 0.640799 0.599212 1.40327 0.257464 3.5141C0.164286 4.09378 0.148141 4.60346 0.283141 5.25684C0.840247 7.90026 5.41066 8.66436 6.07547 10.3367C6.20012 10.6478 6.16248 11.0472 6.10074 11.2916C5.99507 11.7263 5.70512 12.1648 4.84484 12.1648C4.04131 12.1648 3.56079 11.6943 3.56079 10.9876L3.55621 9.74377H0.105469V10.7323C0.105469 13.6226 2.36371 14.4922 4.78066 14.4922C7.10396 14.4922 9.01222 13.696 9.32326 11.5322C9.47781 10.4171 9.3618 9.69129 9.31004 9.41602C8.76701 6.70262 3.88968 5.89896 3.52351 4.38565Z" fill="white"/>
<path d="M45.3467 4.41727C45.2891 4.16154 45.3058 3.89092 45.3355 3.74892C45.4275 3.335 45.7042 2.88357 46.5011 2.88357C47.2438 2.88357 47.6792 3.34915 47.6792 4.04789V4.83825H50.8495V3.93713C50.8495 1.15171 48.3655 0.714053 46.5666 0.714053C44.3017 0.714053 42.4519 1.46482 42.1138 3.56068C42.0244 4.1312 42.0024 4.63757 42.1445 5.28385C42.6954 7.89726 47.221 8.65557 47.878 10.3079C47.9939 10.6211 47.9608 11.0204 47.9016 11.2557C47.803 11.6855 47.5156 12.1185 46.6622 12.1185C45.862 12.1185 45.3803 11.6559 45.3803 10.9588L45.379 9.71827H41.9668V10.7044C41.9668 13.5622 44.1932 14.4242 46.5914 14.4242C48.8882 14.4242 50.7853 13.6355 51.0894 11.4964C51.2347 10.3912 51.1254 9.67162 51.067 9.40014C50.5351 6.72006 45.7117 5.91383 45.3467 4.41727Z" fill="white"/>
<path d="M63.181 1.05262H59.9286V10.6169C59.9336 10.7835 59.9286 10.9709 59.9004 11.1083C59.8325 11.4294 59.5616 12.0469 58.6644 12.0469C57.7784 12.0469 57.5009 11.4294 57.4384 11.1083C57.4053 10.9709 57.4015 10.7835 57.4053 10.6169V1.05262H54.1541V10.32C54.15 10.5591 54.1686 11.0471 54.1827 11.1749C54.4072 13.5898 56.3001 14.3739 58.6644 14.3739C61.0328 14.3739 62.9249 13.5898 63.1536 11.1749C63.1714 11.0471 63.1954 10.5591 63.181 10.32V1.05262Z" fill="white"/>
</g>
<defs>
<clipPath id="clip0">
<rect width="90" height="15" fill="white"/>
</clipPath>
</defs>
</svg>
